<?xml version="1.0" encoding="utf-8"?>
<!-- Generator: Adobe Illustrator 16.0.0, SVG Export Plug-In . SVG Version: 6.00 Build 0)  -->
<!DOCTYPE svg PUBLIC "-//W3C//DTD SVG 1.1//EN" "http://www.w3.org/Graphics/SVG/1.1/DTD/svg11.dtd">
<svg version="1.1" id="Layer_1" xmlns="http://www.w3.org/2000/svg" xmlns:xlink="http://www.w3.org/1999/xlink" x="0px" y="0px"
	 width="1212px" height="226px" viewBox="0 0 1212 226" enable-background="new 0 0 1212 226" xml:space="preserve">
<rect fill="#F68B1E" width="1212" height="226"/>
<g opacity="0.2">
	<path fill="#F1F2F2" d="M1062.543,75.277h-18.416v-1.842c0-3.133,0.355-5.677,1.065-7.632c0.711-1.955,1.77-3.739,3.175-5.355
		c1.406-1.615,4.563-4.458,9.474-8.529c2.618-2.132,3.926-4.087,3.926-5.864c0-1.775-0.525-3.157-1.575-4.143
		c-1.05-0.984-2.642-1.479-4.773-1.479c-2.294,0-4.191,0.76-5.693,2.278s-2.465,4.167-2.884,7.947l-18.803-2.325
		c0.646-6.913,3.157-12.479,7.535-16.695c4.378-4.216,11.089-6.325,20.136-6.325c7.043,0,12.729,1.471,17.059,4.411
		c5.879,3.973,8.819,9.272,8.819,15.895c0,2.746-0.759,5.396-2.277,7.948s-4.621,5.669-9.304,9.353
		c-3.264,2.584-5.324,4.66-6.179,6.227C1062.971,70.714,1062.543,72.756,1062.543,75.277z M1043.496,80.171h19.725v17.397h-19.725
		V80.171z"/>
</g>
<g opacity="0.2">
	<path fill="#F1F2F2" d="M1152.215,163.099h-26.478v-2.648c0-4.505,0.51-8.162,1.532-10.973c1.021-2.811,2.543-5.375,4.563-7.699
		c2.021-2.322,6.562-6.411,13.622-12.264c3.763-3.065,5.644-5.875,5.644-8.43c0-2.554-0.756-4.539-2.265-5.958
		c-1.51-1.415-3.798-2.125-6.863-2.125c-3.298,0-6.026,1.092-8.187,3.275c-2.159,2.184-3.543,5.992-4.145,11.426l-27.035-3.343
		c0.93-9.94,4.541-17.942,10.835-24.003c6.294-6.063,15.942-9.094,28.95-9.094c10.126,0,18.301,2.114,24.526,6.341
		c8.451,5.712,12.679,13.332,12.679,22.852c0,3.948-1.091,7.758-3.274,11.428c-2.183,3.669-6.644,8.151-13.377,13.447
		c-4.691,3.716-7.653,6.699-8.884,8.952C1152.828,156.538,1152.215,159.475,1152.215,163.099z M1124.83,170.136h28.359v25.013
		h-28.359V170.136z"/>
</g>
<g opacity="0.2">
	<path fill="#F1F2F2" d="M766.094,13.318h28.359v25.013h-28.359V13.318z"/>
</g>
<g opacity="0.2">
	<path fill="#F1F2F2" d="M991.283,153.436H958.76v-3.254c0-5.533,0.627-10.025,1.883-13.478c1.255-3.453,3.124-6.603,5.604-9.458
		c2.484-2.853,8.061-7.875,16.733-15.064c4.623-3.766,6.932-7.216,6.932-10.354c0-3.137-0.927-5.576-2.78-7.318
		c-1.854-1.739-4.665-2.611-8.431-2.611c-4.051,0-7.402,1.341-10.056,4.024c-2.653,2.682-4.353,7.36-5.091,14.034l-33.209-4.106
		c1.141-12.21,5.577-22.04,13.31-29.484c7.73-7.447,19.583-11.17,35.56-11.17c12.438,0,22.479,2.597,30.127,7.79
		c10.383,7.017,15.575,16.376,15.575,28.07c0,4.85-1.341,9.529-4.023,14.038c-2.68,4.507-8.159,10.013-16.431,16.518
		c-5.764,4.564-9.402,8.229-10.912,10.997C992.038,145.377,991.283,148.983,991.283,153.436z M957.646,162.079h34.835v30.725
		h-34.835V162.079z"/>
</g>
<g opacity="0.2">
	<path fill="#F1F2F2" d="M135.746,133.473h-35.068v-3.508c0-5.967,0.676-10.811,2.03-14.533c1.353-3.722,3.369-7.119,6.044-10.197
		c2.678-3.076,8.69-8.491,18.042-16.243c4.984-4.06,7.474-7.781,7.474-11.165c0-3.381-1-6.012-2.999-7.89
		c-2-1.875-5.03-2.814-9.09-2.814c-4.368,0-7.981,1.446-10.843,4.338c-2.86,2.891-4.692,7.936-5.489,15.131l-35.806-4.427
		c1.23-13.165,6.013-23.763,14.35-31.79c8.336-8.029,21.116-12.044,38.343-12.044c13.411,0,24.238,2.8,32.484,8.398
		c11.193,7.566,16.792,17.657,16.792,30.267c0,5.229-1.445,10.274-4.337,15.134c-2.891,4.86-8.799,10.796-17.717,17.811
		c-6.214,4.922-10.137,8.873-11.766,11.856C136.559,124.783,135.746,128.673,135.746,133.473z M99.477,142.793h37.56v33.128h-37.56
		V142.793z"/>
</g>
<g>
	<g>
		<path fill="#F1F2F2" d="M257.564,134.533v-31.675h23.486v5.358H263.96v7.021h15.902v5.338H263.96v8.621h17.696v5.336H257.564z"/>
		<path fill="#F1F2F2" d="M291.677,134.533v-31.416h6.396v26.08h15.902v5.336H291.677z"/>
		<path fill="#F1F2F2" d="M322.959,134.533v-31.675h23.486v5.358h-17.091v7.021h15.902v5.338h-15.902v8.621h17.695v5.336H322.959z"
			/>
		<path fill="#F1F2F2" d="M371.634,122.889v-5.338h13.784v12.619c-1.339,1.295-3.28,2.438-5.822,3.424
			c-2.543,0.986-5.118,1.48-7.725,1.48c-3.313,0-6.201-0.695-8.664-2.086c-2.463-1.389-4.314-3.377-5.553-5.963
			c-1.239-2.586-1.858-5.398-1.858-8.438c0-3.299,0.691-6.23,2.074-8.794s3.406-4.53,6.071-5.898
			c2.031-1.052,4.559-1.577,7.584-1.577c3.933,0,7.004,0.824,9.215,2.474s3.634,3.929,4.268,6.839l-6.353,1.188
			c-0.446-1.555-1.285-2.783-2.517-3.684c-1.232-0.9-2.77-1.35-4.613-1.35c-2.795,0-5.017,0.885-6.666,2.656
			c-1.649,1.772-2.474,4.401-2.474,7.887c0,3.76,0.835,6.58,2.507,8.459c1.67,1.881,3.859,2.82,6.568,2.82
			c1.339,0,2.683-0.262,4.029-0.789c1.347-0.525,2.503-1.162,3.468-1.912v-4.018H371.634z"/>
		<path fill="#F1F2F2" d="M424.306,134.533h-6.957l-2.766-7.195h-12.661l-2.615,7.195h-6.784l12.338-31.675h6.763L424.306,134.533z
			 M412.53,122.002l-4.364-11.754l-4.278,11.754H412.53z"/>
		<path fill="#F1F2F2" d="M432.188,134.533v-31.675h6.223l12.964,21.153v-21.153h5.941v31.675h-6.417l-12.77-20.656v20.656H432.188z
			"/>
		<path fill="#F1F2F2" d="M475.634,134.533v-26.316h-9.399v-5.358h25.172v5.358h-9.377v26.316H475.634z"/>
		<path fill="#F1F2F2" d="M536.944,122.889l6.201,1.965c-0.951,3.457-2.532,6.025-4.743,7.703s-5.017,2.518-8.415,2.518
			c-4.207,0-7.664-1.438-10.371-4.311c-2.709-2.873-4.063-6.803-4.063-11.787c0-5.271,1.361-9.366,4.084-12.283
			c2.722-2.917,6.302-4.375,10.738-4.375c3.874,0,7.021,1.145,9.441,3.436c1.44,1.354,2.521,3.299,3.241,5.834l-6.33,1.512
			c-0.375-1.643-1.156-2.938-2.345-3.889c-1.188-0.951-2.633-1.426-4.332-1.426c-2.348,0-4.253,0.842-5.715,2.527
			s-2.193,4.415-2.193,8.188c0,4.005,0.721,6.858,2.161,8.558c1.439,1.699,3.313,2.549,5.617,2.549c1.699,0,3.162-0.541,4.387-1.621
			C535.532,126.906,536.411,125.207,536.944,122.889z"/>
		<path fill="#F1F2F2" d="M553.015,102.858h6.396v17.155c0,2.723,0.079,4.488,0.238,5.295c0.273,1.295,0.925,2.336,1.954,3.121
			s2.438,1.178,4.225,1.178c1.814,0,3.184-0.371,4.105-1.113c0.922-0.74,1.477-1.652,1.664-2.732
			c0.186-1.08,0.279-2.873,0.279-5.381v-17.522h6.396v16.637c0,3.804-0.174,6.489-0.52,8.06s-0.982,2.895-1.912,3.977
			c-0.928,1.08-2.17,1.939-3.727,2.582c-1.555,0.641-3.586,0.961-6.092,0.961c-3.025,0-5.319-0.35-6.882-1.049
			c-1.563-0.697-2.798-1.605-3.706-2.723c-0.907-1.115-1.505-2.285-1.793-3.51c-0.418-1.814-0.627-4.494-0.627-8.037V102.858z"/>
		<path fill="#F1F2F2" d="M587.817,124.227l6.223-0.604c0.375,2.088,1.135,3.623,2.279,4.602c1.146,0.98,2.691,1.469,4.635,1.469
			c2.061,0,3.613-0.436,4.656-1.307c1.045-0.871,1.567-1.891,1.567-3.057c0-0.75-0.22-1.387-0.659-1.912
			c-0.439-0.527-1.207-0.984-2.301-1.373c-0.75-0.26-2.457-0.721-5.121-1.383c-3.428-0.85-5.834-1.895-7.217-3.133
			c-1.945-1.743-2.916-3.867-2.916-6.374c0-1.613,0.457-3.122,1.371-4.526s2.232-2.475,3.955-3.209
			c1.721-0.734,3.799-1.102,6.232-1.102c3.977,0,6.97,0.871,8.979,2.614c2.008,1.743,3.064,4.069,3.164,6.979l-6.396,0.281
			c-0.273-1.628-0.861-2.798-1.762-3.511s-2.25-1.07-4.051-1.07c-1.857,0-3.313,0.383-4.365,1.146
			c-0.676,0.489-1.016,1.146-1.016,1.966c0,0.75,0.316,1.391,0.951,1.924c0.807,0.677,2.766,1.383,5.877,2.117
			s5.413,1.494,6.905,2.279c1.49,0.785,2.656,1.858,3.5,3.219c0.842,1.361,1.264,3.045,1.264,5.047c0,1.814-0.504,3.514-1.514,5.098
			c-1.008,1.586-2.434,2.764-4.277,3.533c-1.845,0.77-4.142,1.156-6.894,1.156c-4.004,0-7.08-0.926-9.227-2.777
			C589.519,130.469,588.235,127.771,587.817,124.227z"/>
		<path fill="#F1F2F2" d="M630.51,134.533v-26.316h-9.4v-5.358h25.172v5.358h-9.377v26.316H630.51z"/>
		<path fill="#F1F2F2" d="M652.736,118.891c0-3.227,0.482-5.935,1.447-8.125c0.721-1.612,1.705-3.061,2.951-4.342
			c1.244-1.282,2.609-2.232,4.094-2.853c1.973-0.835,4.248-1.253,6.828-1.253c4.666,0,8.4,1.447,11.201,4.343
			c2.803,2.896,4.203,6.921,4.203,12.078c0,5.114-1.391,9.114-4.17,12.003s-6.496,4.332-11.148,4.332
			c-4.711,0-8.455-1.438-11.236-4.311C654.127,127.891,652.736,123.932,652.736,118.891z M659.326,118.674
			c0,3.588,0.828,6.307,2.486,8.156c1.656,1.852,3.758,2.777,6.309,2.777c2.549,0,4.641-0.918,6.275-2.754
			c1.635-1.838,2.453-4.592,2.453-8.266c0-3.63-0.797-6.338-2.387-8.124c-1.592-1.786-3.707-2.679-6.342-2.679
			c-2.637,0-4.762,0.903-6.375,2.711C660.133,112.305,659.326,115.03,659.326,118.674z"/>
		<path fill="#F1F2F2" d="M692.791,134.533v-31.675h9.572l5.748,21.606l5.682-21.606h9.594v31.675h-5.941V109.6l-6.289,24.934H705
			l-6.268-24.934v24.934H692.791z"/>
		<path fill="#F1F2F2" d="M734.164,134.533v-31.675h23.484v5.358h-17.09v7.021h15.902v5.338h-15.902v8.621h17.695v5.336H734.164z"/>
		<path fill="#F1F2F2" d="M768.125,134.533v-31.675h13.461c3.385,0,5.844,0.284,7.377,0.854c1.535,0.569,2.762,1.581,3.686,3.036
			c0.92,1.455,1.383,3.118,1.383,4.99c0,2.377-0.699,4.34-2.098,5.888c-1.396,1.549-3.484,2.524-6.266,2.929
			c1.383,0.807,2.525,1.693,3.426,2.658s2.113,2.678,3.641,5.141l3.867,6.18h-7.648l-4.625-6.893
			c-1.641-2.463-2.766-4.014-3.369-4.656c-0.605-0.641-1.246-1.08-1.924-1.316c-0.678-0.238-1.75-0.357-3.219-0.357h-1.297v13.223
			H768.125z M774.52,116.254h4.732c3.068,0,4.982-0.129,5.746-0.389s1.361-0.705,1.795-1.34c0.432-0.633,0.646-1.426,0.646-2.377
			c0-1.065-0.283-1.926-0.854-2.582c-0.568-0.654-1.371-1.068-2.408-1.242c-0.518-0.071-2.074-0.107-4.666-0.107h-4.992V116.254z"/>
		<path fill="#F1F2F2" d="M841.469,122.889l6.201,1.965c-0.951,3.457-2.531,6.025-4.742,7.703s-5.018,2.518-8.416,2.518
			c-4.207,0-7.664-1.438-10.371-4.311c-2.709-2.873-4.063-6.803-4.063-11.787c0-5.271,1.361-9.366,4.084-12.283
			s6.303-4.375,10.738-4.375c3.875,0,7.021,1.145,9.441,3.436c1.441,1.354,2.521,3.299,3.242,5.834l-6.33,1.512
			c-0.375-1.643-1.156-2.938-2.346-3.889c-1.188-0.951-2.633-1.426-4.332-1.426c-2.348,0-4.252,0.842-5.715,2.527
			c-1.461,1.686-2.193,4.415-2.193,8.188c0,4.005,0.721,6.858,2.162,8.558c1.439,1.699,3.313,2.549,5.617,2.549
			c1.699,0,3.162-0.541,4.387-1.621C840.057,126.906,840.936,125.207,841.469,122.889z"/>
		<path fill="#F1F2F2" d="M886.146,134.533h-6.957l-2.766-7.195h-12.662l-2.613,7.195h-6.785l12.338-31.675h6.762L886.146,134.533z
			 M874.371,122.002l-4.365-11.754l-4.277,11.754H874.371z"/>
		<path fill="#F1F2F2" d="M893.986,134.533v-31.675h13.461c3.385,0,5.844,0.284,7.377,0.854c1.535,0.569,2.762,1.581,3.686,3.036
			c0.92,1.455,1.383,3.118,1.383,4.99c0,2.377-0.699,4.34-2.098,5.888c-1.396,1.549-3.484,2.524-6.266,2.929
			c1.383,0.807,2.525,1.693,3.426,2.658s2.113,2.678,3.641,5.141l3.867,6.18h-7.648l-4.625-6.893
			c-1.641-2.463-2.766-4.014-3.369-4.656c-0.605-0.641-1.246-1.08-1.924-1.316c-0.678-0.238-1.75-0.357-3.219-0.357h-1.297v13.223
			H893.986z M900.381,116.254h4.732c3.068,0,4.982-0.129,5.746-0.389s1.361-0.705,1.795-1.34c0.432-0.633,0.646-1.426,0.646-2.377
			c0-1.065-0.283-1.926-0.854-2.582c-0.568-0.654-1.371-1.068-2.408-1.242c-0.518-0.071-2.074-0.107-4.666-0.107h-4.992V116.254z"/>
		<path fill="#F1F2F2" d="M930.346,134.533v-31.675h23.484v5.358h-17.09v7.021h15.902v5.338H936.74v8.621h17.695v5.336H930.346z"/>
	</g>
	<g>
		<path fill="#EFB025" d="M929.417,30.905h-83.589c-13.817,0-25.019,11.201-25.019,25.019c0,13.817,11.201,25.019,25.019,25.019
			h32.694l4.072,7.055l5.028,8.706l5.025-8.706l4.072-7.055h32.696c13.817,0,25.019-11.201,25.019-25.019
			C954.436,42.106,943.234,30.905,929.417,30.905z"/>
		<g>
			<path fill="#F1F2F2" d="M853.961,59.835h-3.922l-0.545,1.846h-3.529l4.203-11.181h3.77l4.201,11.181h-3.619L853.961,59.835z
				 M853.244,57.417l-1.234-4.02l-1.221,4.02H853.244z"/>
			<path fill="#F1F2F2" d="M860.82,50.5h3.227l4.209,6.186V50.5h3.258v11.181h-3.258l-4.186-6.139v6.139h-3.25V50.5z"/>
			<path fill="#F1F2F2" d="M874.768,57.982l3.287-0.206c0.072,0.534,0.217,0.94,0.436,1.22c0.355,0.453,0.865,0.679,1.525,0.679
				c0.494,0,0.873-0.116,1.141-0.347c0.266-0.231,0.4-0.5,0.4-0.804c0-0.29-0.127-0.549-0.381-0.778
				c-0.256-0.229-0.846-0.445-1.77-0.648c-1.516-0.341-2.596-0.793-3.242-1.358c-0.65-0.564-0.977-1.284-0.977-2.158
				c0-0.574,0.166-1.117,0.5-1.628c0.334-0.511,0.834-0.913,1.502-1.205c0.67-0.292,1.586-0.439,2.75-0.439
				c1.428,0,2.518,0.266,3.268,0.797s1.197,1.376,1.34,2.536l-3.258,0.191c-0.086-0.503-0.268-0.87-0.545-1.099
				c-0.277-0.229-0.66-0.343-1.148-0.343c-0.4,0-0.703,0.085-0.906,0.255c-0.205,0.17-0.307,0.377-0.307,0.622
				c0,0.178,0.084,0.338,0.252,0.48c0.164,0.147,0.549,0.285,1.16,0.412c1.51,0.326,2.592,0.655,3.244,0.988
				c0.654,0.333,1.129,0.746,1.428,1.239c0.297,0.493,0.445,1.045,0.445,1.655c0,0.717-0.199,1.378-0.596,1.983
				s-0.949,1.063-1.662,1.376c-0.711,0.313-1.609,0.469-2.691,0.469c-1.902,0-3.219-0.366-3.951-1.098
				C875.279,60.041,874.865,59.11,874.768,57.982z"/>
			<path fill="#F1F2F2" d="M887.061,50.5h3.281l1.182,6.259l1.73-6.259h3.27l1.732,6.251l1.184-6.251h3.264l-2.465,11.181h-3.387
				l-1.961-7.04l-1.953,7.04h-3.389L887.061,50.5z"/>
			<path fill="#F1F2F2" d="M905.387,50.5h9.26v2.387h-5.797v1.777h5.377v2.28h-5.377v2.204h5.963v2.532h-9.426V50.5z"/>
			<path fill="#F1F2F2" d="M918.281,61.681V50.5h5.76c1.066,0,1.883,0.091,2.447,0.274s1.02,0.522,1.365,1.018
				c0.346,0.496,0.52,1.1,0.52,1.812c0,0.621-0.133,1.155-0.398,1.605c-0.264,0.45-0.627,0.815-1.09,1.094
				c-0.295,0.178-0.699,0.326-1.215,0.442c0.412,0.138,0.713,0.275,0.9,0.412c0.127,0.092,0.311,0.288,0.553,0.588
				c0.24,0.3,0.402,0.532,0.484,0.695l1.672,3.24h-3.904l-1.846-3.417c-0.234-0.442-0.443-0.729-0.625-0.862
				c-0.25-0.172-0.531-0.259-0.848-0.259h-0.305v4.538H918.281z M921.752,55.03h1.457c0.158,0,0.463-0.051,0.916-0.153
				c0.229-0.045,0.414-0.163,0.561-0.351c0.145-0.188,0.217-0.404,0.217-0.648c0-0.361-0.115-0.638-0.344-0.831
				s-0.658-0.29-1.289-0.29h-1.518V55.03z"/>
		</g>
	</g>
	<g>
		<path fill="#F26522" d="M366.172,30.905h-83.589c-13.817,0-25.019,11.201-25.019,25.019c0,13.817,11.201,25.019,25.019,25.019
			h32.694l4.072,7.055l5.028,8.706l5.025-8.706l4.072-7.055h32.696c13.817,0,25.019-11.201,25.019-25.019
			C391.19,42.106,379.989,30.905,366.172,30.905z"/>
		<g>
			<path fill="#FFFFFF" d="M284.36,59.489c0.419,0.291,0.692,0.474,0.82,0.547c0.192,0.108,0.451,0.234,0.776,0.377l-0.932,1.879
				c-0.469-0.227-0.932-0.497-1.39-0.81c-0.459-0.313-0.779-0.548-0.962-0.706c-0.739,0.32-1.666,0.48-2.78,0.48
				c-1.646,0-2.946-0.429-3.897-1.287c-1.124-1.015-1.686-2.442-1.686-4.281c0-1.785,0.491-3.172,1.475-4.16
				s2.358-1.482,4.123-1.482c1.8,0,3.188,0.483,4.167,1.45c0.979,0.966,1.468,2.349,1.468,4.148
				C285.543,57.246,285.148,58.528,284.36,59.489z M281.794,57.773c0.267-0.478,0.399-1.193,0.399-2.145
				c0-1.094-0.203-1.875-0.61-2.344c-0.406-0.468-0.967-0.702-1.683-0.702c-0.665,0-1.205,0.239-1.619,0.717
				s-0.621,1.225-0.621,2.241c0,1.183,0.202,2.014,0.606,2.492s0.959,0.717,1.663,0.717c0.228,0,0.442-0.022,0.645-0.067
				c-0.281-0.271-0.726-0.527-1.331-0.769l0.524-1.205c0.296,0.054,0.526,0.121,0.691,0.199c0.165,0.079,0.487,0.286,0.965,0.621
				C281.537,57.608,281.661,57.689,281.794,57.773z"/>
			<path fill="#FFFFFF" d="M295.917,50.23h3.343v6.459c0,0.641-0.1,1.246-0.299,1.814c-0.2,0.569-0.514,1.067-0.939,1.493
				c-0.427,0.426-0.874,0.725-1.343,0.897c-0.65,0.242-1.432,0.362-2.344,0.362c-0.527,0-1.104-0.037-1.727-0.11
				c-0.624-0.074-1.146-0.22-1.564-0.439c-0.419-0.22-0.803-0.532-1.15-0.935c-0.347-0.405-0.585-0.82-0.713-1.25
				c-0.207-0.689-0.311-1.301-0.311-1.833V50.23h3.342v6.613c0,0.591,0.164,1.052,0.492,1.385c0.328,0.332,0.782,0.499,1.364,0.499
				c0.577,0,1.029-0.164,1.357-0.491c0.327-0.328,0.491-0.792,0.491-1.393V50.23z"/>
			<path fill="#FFFFFF" d="M302.985,50.23h8.978v2.315h-5.621v1.723h5.214v2.211h-5.214v2.138h5.783v2.455h-9.14V50.23z"/>
			<path fill="#FFFFFF" d="M314.86,57.485l3.188-0.199c0.068,0.518,0.209,0.912,0.422,1.183c0.345,0.438,0.838,0.658,1.479,0.658
				c0.479,0,0.847-0.112,1.105-0.336c0.259-0.225,0.388-0.485,0.388-0.781c0-0.281-0.123-0.532-0.369-0.754
				c-0.246-0.222-0.818-0.431-1.716-0.628c-1.469-0.33-2.517-0.769-3.143-1.316c-0.631-0.548-0.946-1.245-0.946-2.093
				c0-0.558,0.161-1.083,0.484-1.579c0.322-0.495,0.808-0.885,1.456-1.168c0.649-0.284,1.537-0.425,2.666-0.425
				c1.386,0,2.441,0.257,3.169,0.772c0.728,0.516,1.16,1.335,1.298,2.459l-3.157,0.186c-0.084-0.488-0.261-0.844-0.529-1.065
				c-0.269-0.222-0.64-0.333-1.113-0.333c-0.389,0-0.683,0.083-0.879,0.248c-0.198,0.165-0.296,0.366-0.296,0.603
				c0,0.173,0.081,0.328,0.244,0.466c0.157,0.144,0.531,0.276,1.123,0.399c1.465,0.316,2.514,0.635,3.147,0.958
				c0.633,0.323,1.094,0.724,1.383,1.202c0.288,0.478,0.432,1.013,0.432,1.604c0,0.695-0.191,1.336-0.576,1.923
				s-0.922,1.032-1.612,1.334c-0.69,0.303-1.561,0.455-2.61,0.455c-1.844,0-3.121-0.354-3.83-1.064
				C315.356,59.482,314.954,58.579,314.86,57.485z"/>
			<path fill="#FFFFFF" d="M327.135,50.23h10.183v2.677H333.9v8.164h-3.35v-8.164h-3.416V50.23z"/>
			<path fill="#FFFFFF" d="M340.481,50.23h3.357v10.841h-3.357V50.23z"/>
			<path fill="#FFFFFF" d="M347.335,55.659c0-1.771,0.493-3.148,1.479-4.134s2.359-1.479,4.119-1.479
				c1.804,0,3.194,0.484,4.171,1.453c0.976,0.969,1.464,2.326,1.464,4.071c0,1.267-0.213,2.306-0.64,3.117s-1.042,1.442-1.849,1.893
				c-0.806,0.451-1.811,0.676-3.014,0.676c-1.223,0-2.234-0.194-3.036-0.583c-0.801-0.39-1.45-1.006-1.948-1.849
				C347.585,57.98,347.335,56.925,347.335,55.659z M350.686,55.673c0,1.094,0.203,1.881,0.61,2.359
				c0.406,0.479,0.959,0.717,1.659,0.717c0.721,0,1.277-0.234,1.672-0.702c0.395-0.469,0.592-1.31,0.592-2.522
				c0-1.02-0.206-1.766-0.617-2.236c-0.412-0.471-0.971-0.707-1.676-0.707c-0.675,0-1.218,0.239-1.627,0.717
				S350.686,54.569,350.686,55.673z"/>
			<path fill="#FFFFFF" d="M361.909,50.23h3.128l4.082,5.999V50.23h3.158v10.841h-3.158l-4.06-5.952v5.952h-3.15V50.23z"/>
		</g>
	</g>
</g>
</svg>
