<?xml version="1.0" encoding="utf-8"?>
<!-- Generator: Adobe Illustrator 16.0.0, SVG Export Plug-In . SVG Version: 6.00 Build 0)  -->
<!DOCTYPE svg PUBLIC "-//W3C//DTD SVG 1.1//EN" "http://www.w3.org/Graphics/SVG/1.1/DTD/svg11.dtd">
<svg version="1.1" id="Layer_1" xmlns="http://www.w3.org/2000/svg" xmlns:xlink="http://www.w3.org/1999/xlink" x="0px" y="0px"
	 width="924px" height="551px" viewBox="154 38.5 924 551" enable-background="new 154 38.5 924 551" xml:space="preserve">
<rect x="156" y="38.5" fill="#FFFFFF" width="920" height="551"/>
<g>
	<rect x="525.641" y="291.617" fill="#E6E7E8" width="524.859" height="38.21"/>
	<rect x="525.641" y="65.939" fill="#E6E7E8" width="524.859" height="19.105"/>
	<rect x="525.641" y="89.645" fill="#E6E7E8" width="89.028" height="15.348"/>
	<rect x="525.641" y="109.156" fill="#E6E7E8" width="89.028" height="15.348"/>
	<rect x="525.641" y="389.55" fill="#E6E7E8" width="313.537" height="15.347"/>
	<rect x="525.641" y="416.526" fill="#E6E7E8" width="172.437" height="15.347"/>
	<rect x="525.641" y="443.503" fill="#E6E7E8" width="89.028" height="15.347"/>
	<rect x="525.641" y="180.276" fill="#E6E7E8" width="223.615" height="15.348"/>
	<rect x="525.641" y="216.41" fill="#E6E7E8" width="141.867" height="15.348"/>
	<rect x="525.641" y="147.577" fill="#E6E7E8" width="120.994" height="27.72"/>
	<rect x="525.641" y="351.945" fill="#E6E7E8" width="83.01" height="21.997"/>
	<path fill="#E6E7E8" d="M582.702,257.123c0,7.472-6.058,13.529-13.53,13.529h-24.383c-7.473,0-13.531-6.057-13.531-13.529l0,0
		c0-7.473,6.058-13.53,13.531-13.53h24.383C576.645,243.593,582.702,249.65,582.702,257.123L582.702,257.123z"/>
	<path fill="#E6E7E8" d="M640.391,257.123c0,7.472-6.059,13.529-13.53,13.529h-24.384c-7.473,0-13.531-6.057-13.531-13.529l0,0
		c0-7.473,6.058-13.53,13.531-13.53h24.384C634.332,243.593,640.391,249.65,640.391,257.123L640.391,257.123z"/>
	<path fill="#E6E7E8" d="M698.077,257.123c0,7.472-6.058,13.529-13.529,13.529h-24.385c-7.473,0-13.529-6.057-13.529-13.529l0,0
		c0-7.473,6.057-13.53,13.529-13.53h24.385C692.02,243.593,698.077,249.65,698.077,257.123L698.077,257.123z"/>
	<path fill="#E6E7E8" d="M755.765,257.123c0,7.472-6.058,13.529-13.529,13.529h-24.384c-7.473,0-13.53-6.057-13.53-13.529l0,0
		c0-7.473,6.057-13.53,13.53-13.53h24.384C749.707,243.593,755.765,249.65,755.765,257.123L755.765,257.123z"/>
	<path fill="#E6E7E8" d="M813.453,257.123c0,7.472-6.058,13.529-13.53,13.529h-24.384c-7.472,0-13.529-6.057-13.529-13.529l0,0
		c0-7.473,6.057-13.53,13.529-13.53h24.384C807.395,243.593,813.453,249.65,813.453,257.123L813.453,257.123z"/>
	<rect x="179.989" y="65.939" fill="#E6E7E8" width="324.942" height="323.611"/>
	<rect x="179.989" y="413.176" fill="#E6E7E8" width="72.746" height="70.543"/>
	<rect x="179.989" y="514.867" fill="#E6E7E8" width="126.627" height="18.191"/>
	<rect x="264.055" y="413.176" fill="#E6E7E8" width="72.746" height="70.543"/>
	<rect x="348.12" y="413.176" fill="#E6E7E8" width="72.746" height="70.543"/>
	<rect x="432.185" y="413.176" fill="#E6E7E8" width="72.746" height="70.543"/>
	<circle fill="#E6E7E8" cx="191.436" cy="557.751" r="11.446"/>
	<circle fill="#E6E7E8" cx="227.809" cy="557.751" r="11.446"/>
</g>
</svg>
