<?xml version="1.0" encoding="utf-8"?>
<!-- Generator: Adobe Illustrator 16.0.0, SVG Export Plug-In . SVG Version: 6.00 Build 0)  -->
<!DOCTYPE svg PUBLIC "-//W3C//DTD SVG 1.1//EN" "http://www.w3.org/Graphics/SVG/1.1/DTD/svg11.dtd">
<svg version="1.1" id="Layer_1" xmlns="http://www.w3.org/2000/svg" xmlns:xlink="http://www.w3.org/1999/xlink" x="0px" y="0px"
	 width="1232px" height="628px" viewBox="0 0 1232 628" enable-background="new 0 0 1232 628" xml:space="preserve">
<rect fill="#FFFFFF" width="1232" height="628"/>
<g>
	<rect x="423.74" y="286.52" fill="#E6E7E8" width="790.909" height="43.802"/>
	<rect x="423.74" y="27.812" fill="#E6E7E8" width="531.856" height="21.901"/>
	<rect x="423.74" y="54.988" fill="#E6E7E8" width="102.058" height="17.594"/>
	<rect x="423.74" y="77.354" fill="#E6E7E8" width="102.058" height="17.594"/>
	<rect x="423.74" y="398.785" fill="#E6E7E8" width="359.426" height="17.594"/>
	<rect x="423.74" y="429.71" fill="#E6E7E8" width="197.674" height="17.594"/>
	<rect x="423.74" y="460.635" fill="#E6E7E8" width="102.058" height="17.594"/>
	<rect x="423.74" y="158.883" fill="#E6E7E8" width="256.343" height="17.594"/>
	<rect x="423.74" y="200.305" fill="#E6E7E8" width="162.631" height="17.594"/>
	<rect x="423.74" y="121.398" fill="#E6E7E8" width="138.702" height="31.777"/>
	<rect x="423.74" y="355.678" fill="#E6E7E8" width="95.159" height="25.216"/>
	<path fill="#E6E7E8" d="M489.153,246.977c0,8.566-6.944,15.51-15.51,15.51h-27.953c-8.566,0-15.51-6.944-15.51-15.51l0,0
		c0-8.566,6.944-15.51,15.51-15.51h27.953C482.209,231.467,489.153,238.411,489.153,246.977L489.153,246.977z"/>
	<path fill="#E6E7E8" d="M555.284,246.977c0,8.566-6.944,15.51-15.51,15.51h-27.953c-8.566,0-15.51-6.944-15.51-15.51l0,0
		c0-8.566,6.944-15.51,15.51-15.51h27.953C548.34,231.467,555.284,238.411,555.284,246.977L555.284,246.977z"/>
	<path fill="#E6E7E8" d="M621.414,246.977c0,8.566-6.944,15.51-15.51,15.51h-27.953c-8.566,0-15.51-6.944-15.51-15.51l0,0
		c0-8.566,6.944-15.51,15.51-15.51h27.953C614.47,231.467,621.414,238.411,621.414,246.977L621.414,246.977z"/>
	<path fill="#E6E7E8" d="M687.545,246.977c0,8.566-6.944,15.51-15.51,15.51h-27.953c-8.566,0-15.51-6.944-15.51-15.51l0,0
		c0-8.566,6.943-15.51,15.51-15.51h27.953C680.601,231.467,687.545,238.411,687.545,246.977L687.545,246.977z"/>
	<path fill="#E6E7E8" d="M753.676,246.977c0,8.566-6.945,15.51-15.51,15.51h-27.953c-8.566,0-15.51-6.944-15.51-15.51l0,0
		c0-8.566,6.943-15.51,15.51-15.51h27.953C746.73,231.467,753.676,238.411,753.676,246.977L753.676,246.977z"/>
	<rect x="27.5" y="27.812" fill="#E6E7E8" width="372.5" height="370.974"/>
	<rect x="27.5" y="425.869" fill="#E6E7E8" width="83.393" height="80.868"/>
	<rect x="27.5" y="542.444" fill="#E6E7E8" width="145.16" height="20.854"/>
	<rect x="123.869" y="425.869" fill="#E6E7E8" width="83.393" height="80.868"/>
	<rect x="220.238" y="425.869" fill="#E6E7E8" width="83.393" height="80.868"/>
	<rect x="316.607" y="425.869" fill="#E6E7E8" width="83.393" height="80.868"/>
	<circle fill="#E6E7E8" cx="40.622" cy="591.604" r="13.122"/>
	<circle fill="#E6E7E8" cx="82.319" cy="591.604" r="13.122"/>
</g>
</svg>
